{
  "source": "C:\\Users\\Peter\\Desktop\\stuff\\MIUN\\quantitative_research\\video_compression\\videos\\BVI-HD\\BVI-HD_CDVL_videos\\ORIG\\Music_1920x1080_30fps.mp4",
  "output": "C:\\Users\\Peter\\Desktop\\stuff\\MIUN\\quantitative_research\\video_compression\\compressed_videos\\BVI-HD\\h264\\2\\Music_1920x1080_30fps_h264.mp4",
  "codec": "h264",
  "ok": "Input #0, mov,mp4,m4a,3gp,3g2,mj2, from 'C:\\Users\\Peter\\Desktop\\stuff\\MIUN\\quantitative_research\\video_compression\\videos\\BVI-HD\\BVI-HD_CDVL_videos\\ORIG\\Music_1920x1080_30fps.mp4':\n  Metadata:\n    major_brand     : isom\n    minor_version   : 512\n    compatible_brands: isomiso2avc1mp41\n    encoder         : Lavf54.28.101\n  Duration: 00:00:05.00, start: 0.000000, bitrate: 192710 kb/s\n  Stream #0:0[0x1](und): Video: h264 (High 4:4:4 Predictive) (avc1 / 0x31637661), yuv420p(progressive), 1920x1080, 192707 kb/s, 30 fps, 30 tbr, 30 tbn (default)\n    Metadata:\n      handler_name    : VideoHandler\n      vendor_id       : [0][0][0][0]\n[out#0/mp4 @ 0000022ae983dc80] Codec AVOption b:a (set bitrate (in bits/s)) has not been used for any stream. The most likely reason is either wrong type (e.g. a video option with no video streams) or that it is a private option of some decoder which was not actually used for any stream.\nStream mapping:\n  Stream #0:0 -> #0:0 (h264 (native) -> h264 (libx264))\nPress [q] to stop, [?] for help\n[libx264 @ 0000022ae98b00c0] using cpu capabilities: MMX2 SSE2Fast SSSE3 SSE4.2 AVX FMA3 BMI2 AVX2\n[libx264 @ 0000022ae98b00c0] profile High, level 5.0, 4:2:0, 8-bit\n[libx264 @ 0000022ae98b00c0] 264 - core 165 r3222 b35605a - H.264/MPEG-4 AVC codec - Copyleft 2003-2025 - http://www.videolan.org/x264.html - options: cabac=1 ref=5 deblock=1:0:0 analyse=0x3:0x113 me=hex subme=8 psy=1 psy_rd=1.00:0.00 mixed_ref=1 me_range=16 chroma_me=1 trellis=2 8x8dct=1 cqm=0 deadzone=21,11 fast_pskip=1 chroma_qp_offset=-2 threads=18 lookahead_threads=3 sliced_threads=0 nr=0 decimate=1 interlaced=0 bluray_compat=0 constrained_intra=0 bframes=3 b_pyramid=2 b_adapt=1 b_bias=0 direct=3 weightb=1 open_gop=0 weightp=2 keyint=250 keyint_min=25 scenecut=40 intra_refresh=0 rc_lookahead=50 rc=cbr mbtree=1 bitrate=2000 ratetol=1.0 qcomp=0.60 qpmin=0 qpmax=69 qpstep=4 vbv_maxrate=2000 vbv_bufsize=2000 nal_hrd=none filler=0 ip_ratio=1.40 aq=1:1.00\nOutput #0, mp4, to 'C:\\Users\\Peter\\Desktop\\stuff\\MIUN\\quantitative_research\\video_compression\\compressed_videos\\BVI-HD\\h264\\2\\Music_1920x1080_30fps_h264.mp4':\n  Metadata:\n    major_brand     : isom\n    minor_version   : 512\n    compatible_brands: isomiso2avc1mp41\n    encoder         : Lavf62.3.100\n  Stream #0:0(und): Video: h264 (avc1 / 0x31637661), yuv420p(tv, progressive), 1920x1080, q=2-31, 2000 kb/s, 30 fps, 15360 tbn (default)\n    Metadata:\n      encoder         : Lavc62.11.100 libx264\n      handler_name    : VideoHandler\n      vendor_id       : [0][0][0][0]\n    Side data:\n      cpb: bitrate max/min/avg: 2000000/0/2000000 buffer size: 2000000 vbv_delay: N/A\nframe=    0 fps=0.0 q=0.0 size=       0KiB time=N/A bitrate=N/A speed=N/A elapsed=0:00:00.51    \nframe=    0 fps=0.0 q=0.0 size=       0KiB time=N/A bitrate=N/A speed=N/A elapsed=0:00:01.11    \nframe=    0 fps=0.0 q=0.0 size=       0KiB time=N/A bitrate=N/A speed=N/A elapsed=0:00:01.69    \nframe=   10 fps=4.4 q=41.0 size=       0KiB time=00:00:00.23 bitrate=   1.6kbits/s speed=0.102x elapsed=0:00:02.28    \nframe=   16 fps=5.6 q=39.0 size=       0KiB time=00:00:00.46 bitrate=   0.8kbits/s speed=0.164x elapsed=0:00:02.84    \nframe=   42 fps= 13 q=40.0 size=     256KiB time=00:00:01.30 bitrate=1613.5kbits/s speed=0.387x elapsed=0:00:03.35    \nframe=   70 fps= 18 q=37.0 size=     256KiB time=00:00:02.26 bitrate= 925.4kbits/s speed=0.58x elapsed=0:00:03.90    \nframe=   99 fps= 22 q=37.0 size=     512KiB time=00:00:03.16 bitrate=1324.6kbits/s speed=0.712x elapsed=0:00:04.44    \nframe=  131 fps= 26 q=36.0 size=     768KiB time=00:00:04.06 bitrate=1547.2kbits/s speed=0.811x elapsed=0:00:05.01    \nframe=  142 fps= 25 q=-1.0 size=     768KiB time=00:00:04.63 bitrate=1358.0kbits/s speed=0.827x elapsed=0:00:05.60    \n[mp4 @ 0000022ae9ca3bc0] Starting second pass: moving the moov atom to the beginning of the file\n[out#0/mp4 @ 0000022ae983dc80] video:1080KiB audio:0KiB subtitle:0KiB other streams:0KiB global headers:0KiB muxing overhead: 0.209768%\nframe=  150 fps= 26 q=-1.0 Lsize=    1082KiB time=00:00:04.93 bitrate=1796.5kbits/s speed=0.853x elapsed=0:00:05.78    \n[libx264 @ 0000022ae98b00c0] frame I:3     Avg QP:33.33  size: 16673\n[libx264 @ 0000022ae98b00c0] frame P:70    Avg QP:35.53  size:  9472\n[libx264 @ 0000022ae98b00c0] frame B:77    Avg QP:38.07  size:  5087\n[libx264 @ 0000022ae98b00c0] consecutive B-frames: 31.3%  0.0%  2.0% 66.7%\n[libx264 @ 0000022ae98b00c0] mb I  I16..4: 58.4% 40.3%  1.3%\n[libx264 @ 0000022ae98b00c0] mb P  I16..4: 27.6% 10.4%  0.1%  P16..4: 18.7%  1.0%  0.7%  0.0%  0.0%    skip:41.5%\n[libx264 @ 0000022ae98b00c0] mb B  I16..4:  0.6%  0.9%  0.0%  B16..8: 27.4%  1.7%  0.1%  direct: 0.6%  skip:68.7%  L0:46.6% L1:52.1% BI: 1.4%\n[libx264 @ 0000022ae98b00c0] 8x8 transform intra:29.9% inter:93.3%\n[libx264 @ 0000022ae98b00c0] direct mvs  spatial:98.7% temporal:1.3%\n[libx264 @ 0000022ae98b00c0] coded y,uvDC,uvAC intra: 5.6% 36.5% 1.5% inter: 1.9% 7.6% 0.1%\n[libx264 @ 0000022ae98b00c0] i16 v,h,dc,p: 30% 19%  6% 44%\n[libx264 @ 0000022ae98b00c0] i8 v,h,dc,ddl,ddr,vr,hd,vl,hu: 13%  3% 43%  7%  9%  9%  6%  6%  4%\n[libx264 @ 0000022ae98b00c0] i4 v,h,dc,ddl,ddr,vr,hd,vl,hu: 16%  6% 12% 10% 14% 13% 10%  9%  9%\n[libx264 @ 0000022ae98b00c0] i8c dc,h,v,p: 60% 18% 10% 12%\n[libx264 @ 0000022ae98b00c0] Weighted P-Frames: Y:0.0% UV:0.0%\n[libx264 @ 0000022ae98b00c0] ref P L0: 46.9%  8.8% 20.5% 10.3% 11.6%  2.0%\n[libx264 @ 0000022ae98b00c0] ref B L0: 76.5% 13.8%  6.7%  3.0%\n[libx264 @ 0000022ae98b00c0] ref B L1: 93.9%  6.1%\n[libx264 @ 0000022ae98b00c0] kb/s:1767.59\n",
  "seconds": 6.205420017242432,
  "probe_out": {}
}